<mxfile host="app.diagrams.net" agent="Mozilla/5.0 (X11; Ubuntu; Linux x86_64; rv:138.0) Gecko/20100101 Firefox/138.0" version="27.1.6">
  <diagram id="C5RBs43oDa-KdzZeNtuy" name="Page-1">
    <mxGraphModel dx="1338" dy="786" grid="1" gridSize="10" guides="1" tooltips="1" connect="1" arrows="1" fold="1" page="1" pageScale="1" pageWidth="827" pageHeight="1169" math="0" shadow="0">
      <root>
        <mxCell id="WIyWlLk6GJQsqaUBKTNV-0" />
        <mxCell id="WIyWlLk6GJQsqaUBKTNV-1" parent="WIyWlLk6GJQsqaUBKTNV-0" />
        <mxCell id="-O7GP7ibDNwJC8hfA5wT-12" style="edgeStyle=orthogonalEdgeStyle;rounded=0;orthogonalLoop=1;jettySize=auto;html=1;entryX=0.5;entryY=0;entryDx=0;entryDy=0;" edge="1" parent="WIyWlLk6GJQsqaUBKTNV-1" source="WIyWlLk6GJQsqaUBKTNV-3" target="-O7GP7ibDNwJC8hfA5wT-2">
          <mxGeometry relative="1" as="geometry" />
        </mxCell>
        <mxCell id="-O7GP7ibDNwJC8hfA5wT-13" style="edgeStyle=orthogonalEdgeStyle;rounded=0;orthogonalLoop=1;jettySize=auto;html=1;entryX=0.5;entryY=0;entryDx=0;entryDy=0;" edge="1" parent="WIyWlLk6GJQsqaUBKTNV-1" source="WIyWlLk6GJQsqaUBKTNV-3" target="-O7GP7ibDNwJC8hfA5wT-3">
          <mxGeometry relative="1" as="geometry" />
        </mxCell>
        <mxCell id="WIyWlLk6GJQsqaUBKTNV-3" value="&lt;div&gt;craving: looking for an &quot;out&quot; to absolve our behavior&lt;/div&gt;" style="rounded=1;whiteSpace=wrap;html=1;fontSize=12;glass=0;strokeWidth=1;shadow=0;" parent="WIyWlLk6GJQsqaUBKTNV-1" vertex="1">
          <mxGeometry x="320" y="120" width="120" height="80" as="geometry" />
        </mxCell>
        <mxCell id="-O7GP7ibDNwJC8hfA5wT-10" style="edgeStyle=orthogonalEdgeStyle;rounded=0;orthogonalLoop=1;jettySize=auto;html=1;" edge="1" parent="WIyWlLk6GJQsqaUBKTNV-1" source="-O7GP7ibDNwJC8hfA5wT-2" target="-O7GP7ibDNwJC8hfA5wT-8">
          <mxGeometry relative="1" as="geometry" />
        </mxCell>
        <mxCell id="-O7GP7ibDNwJC8hfA5wT-2" value="Extreme 1: fatalistic attitudes: &quot;looking for something to blame&quot;" style="rounded=1;whiteSpace=wrap;html=1;" vertex="1" parent="WIyWlLk6GJQsqaUBKTNV-1">
          <mxGeometry x="70" y="260" width="170" height="80" as="geometry" />
        </mxCell>
        <mxCell id="-O7GP7ibDNwJC8hfA5wT-9" style="edgeStyle=orthogonalEdgeStyle;rounded=0;orthogonalLoop=1;jettySize=auto;html=1;" edge="1" parent="WIyWlLk6GJQsqaUBKTNV-1" source="-O7GP7ibDNwJC8hfA5wT-3" target="-O7GP7ibDNwJC8hfA5wT-8">
          <mxGeometry relative="1" as="geometry" />
        </mxCell>
        <mxCell id="-O7GP7ibDNwJC8hfA5wT-3" value="Extreme 2: no cause or condition: &quot;pretending there is no rhyme or reason&quot;" style="rounded=1;whiteSpace=wrap;html=1;" vertex="1" parent="WIyWlLk6GJQsqaUBKTNV-1">
          <mxGeometry x="560" y="260" width="200" height="80" as="geometry" />
        </mxCell>
        <mxCell id="-O7GP7ibDNwJC8hfA5wT-8" value="Reject the extremes: adopt the Middle Way - dependent origination (cause and conditions); eliminate our craving with respect to looking for an &quot;out&quot; to absolve our behavior." style="rounded=1;whiteSpace=wrap;html=1;" vertex="1" parent="WIyWlLk6GJQsqaUBKTNV-1">
          <mxGeometry x="255" y="360" width="250" height="100" as="geometry" />
        </mxCell>
        <mxCell id="-O7GP7ibDNwJC8hfA5wT-11" value="AN 3.61" style="rounded=1;whiteSpace=wrap;html=1;" vertex="1" parent="WIyWlLk6GJQsqaUBKTNV-1">
          <mxGeometry x="320" y="20" width="120" height="60" as="geometry" />
        </mxCell>
      </root>
    </mxGraphModel>
  </diagram>
</mxfile>
